<svg xmlns="http://www.w3.org/2000/svg" viewBox="0 0 15 16"><g fill="none" stroke="#000" stroke-miterlimit="10"><path d="M9.479 3.746c3.006-.027 5.221 2.636 5.007 5.433-.087 1.136-.502 2.158-1.292 2.985-.964 1.009-1.961 1.99-2.952 2.979-.361.356-.803.451-1.272.262-.469-.188-.736-.558-.797-1.062a.976.976 0 0 1 .281-.847l2.008-2.058c.328-.343.663-.679.957-1.042.676-.827.77-1.748.315-2.696-.482-.995-1.299-1.479-2.41-1.446-.615.013-1.131.249-1.566.672-.422.41-.843.834-1.278 1.231-.422.383-.971.423-1.433.134a1.252 1.252 0 0 1-.549-1.405c.033-.121.094-.249.174-.35.616-.74 1.265-1.446 2.068-1.984a4.628 4.628 0 0 1 2.739-.806z"/><path d="M5.481 12.245C2.542 12.265.3 9.596.514 6.805c.087-1.096.469-2.091 1.212-2.891.937-1.009 1.928-1.97 2.899-2.945.107-.108.228-.195.355-.276.482-.296.977-.249 1.419.121.381.323.548.921.347 1.379-.073.174-.214.329-.348.47-.837.861-1.68 1.721-2.51 2.582-.335.343-.629.713-.777 1.19-.488 1.567.703 3.403 2.544 3.309.609-.034 1.132-.236 1.573-.659.422-.41.837-.827 1.279-1.23.422-.383.937-.437 1.392-.175.469.262.723.78.623 1.318-.033.168-.107.35-.214.477-.616.733-1.272 1.439-2.068 1.984-.831.564-1.768.779-2.759.786z"/></g></svg>