<svg id="Capa_1" enable-background="new 0 0 551.13 551.13" height="512" viewBox="0 0 551.13 551.13" width="512" xmlns="http://www.w3.org/2000/svg"><path d="m275.565 0c-151.955 0-275.565 123.608-275.565 275.565 0 151.955 123.61 275.565 275.565 275.565s275.565-123.61 275.565-275.565c0-151.957-123.61-275.565-275.565-275.565zm-241.119 275.565c0-60.286 22.399-115.337 59.107-157.659l339.671 339.671c-42.321 36.708-97.372 59.107-157.659 59.107-132.949 0-241.12-108.17-241.119-241.119zm423.133 157.659-339.671-339.671c42.321-36.708 97.372-59.107 157.659-59.107 132.949 0 241.119 108.17 241.119 241.119 0 60.286-22.399 115.338-59.107 157.659z"/></svg>