<svg id="svg" version="1.1" xmlns="http://www.w3.org/2000/svg" xmlns:xlink="http://www.w3.org/1999/xlink" width="400" height="598.1032665964173" viewBox="0, 0, 400,598.1032665964173"><g id="svgg"><path id="path0" d="M211.800 156.164 C 191.939 161.094,191.305 193.928,210.952 200.104 C 226.367 204.949,239.421 194.077,238.690 177.000 C 238.034 161.684,226.274 152.572,211.800 156.164 M153.200 178.400 L 153.200 200.400 156.000 200.400 L 158.800 200.400 158.800 183.200 C 158.800 173.740,158.935 166.007,159.100 166.015 C 159.265 166.023,164.530 173.758,170.800 183.203 L 182.200 200.377 185.300 200.388 L 188.400 200.400 188.400 178.400 L 188.400 156.400 185.600 156.400 L 182.800 156.400 182.800 173.433 C 182.800 183.867,182.655 190.415,182.425 190.333 C 182.061 190.204,175.500 180.571,164.693 164.300 L 159.446 156.400 156.323 156.400 L 153.200 156.400 153.200 178.400 M222.892 161.060 C 237.255 166.613,236.308 192.103,221.600 195.838 C 207.993 199.294,198.292 184.747,204.011 169.463 C 206.684 162.318,215.731 158.292,222.892 161.060 M193.200 230.254 C 169.070 232.949,168.347 272.021,192.360 275.635 C 205.938 277.678,216.099 268.877,216.701 254.553 C 217.358 238.875,207.479 228.660,193.200 230.254 M277.580 230.409 C 253.843 234.065,254.143 272.497,277.933 275.646 C 294.180 277.797,305.480 263.652,301.426 246.240 C 298.849 235.169,289.024 228.647,277.580 230.409 M90.300 231.029 C 90.135 231.197,90.000 241.203,90.000 253.267 L 90.000 275.200 92.800 275.200 L 95.600 275.200 95.600 266.208 L 95.600 257.215 96.500 257.018 C 96.995 256.909,101.090 256.753,105.600 256.671 C 110.362 256.584,114.417 256.324,115.271 256.050 C 126.374 252.491,126.523 235.307,115.482 231.750 C 113.246 231.029,90.930 230.391,90.300 231.029 M132.000 253.000 L 132.000 275.200 134.600 275.200 L 137.200 275.200 137.206 265.100 C 137.209 259.545,137.357 254.772,137.534 254.494 C 137.783 254.100,140.396 254.011,149.228 254.094 L 160.600 254.200 160.707 264.700 L 160.813 275.200 163.607 275.200 L 166.400 275.200 166.400 253.000 L 166.400 230.800 163.600 230.800 L 160.800 230.800 160.800 240.000 L 160.800 249.200 149.243 249.200 C 139.073 249.200,137.656 249.124,137.443 248.567 C 137.309 248.219,137.200 244.079,137.200 239.367 L 137.200 230.800 134.600 230.800 L 132.000 230.800 132.000 253.000 M221.600 233.400 L 221.600 236.000 228.800 236.000 L 236.000 236.000 236.000 255.600 L 236.000 275.200 239.000 275.200 L 242.000 275.200 242.000 255.600 L 242.000 236.000 249.200 236.000 L 256.400 236.000 256.400 233.400 L 256.400 230.800 239.000 230.800 L 221.600 230.800 221.600 233.400 M198.345 235.219 C 207.865 236.764,213.009 246.474,210.568 258.293 C 206.810 276.486,183.139 275.045,180.785 256.480 C 179.347 245.143,184.263 236.717,193.200 235.200 C 195.751 234.767,195.552 234.766,198.345 235.219 M283.810 235.236 C 293.143 236.961,298.146 246.406,295.969 258.186 C 292.822 275.209,269.898 275.451,266.379 258.498 C 264.004 247.060,269.278 236.727,278.260 235.220 C 281.037 234.754,281.205 234.754,283.810 235.236 M114.027 236.927 C 119.136 239.629,119.003 248.111,113.811 250.778 C 111.906 251.757,111.483 251.806,103.711 251.941 L 95.600 252.082 95.600 244.041 L 95.600 236.000 103.937 236.000 C 111.884 236.000,112.356 236.043,114.027 236.927 M45.293 315.300 C 38.395 333.526,33.708 345.799,33.054 347.349 C 32.108 349.589,32.119 349.600,35.367 349.600 L 38.334 349.600 39.822 345.100 C 40.640 342.625,41.658 339.655,42.084 338.500 L 42.857 336.400 52.329 336.405 L 61.800 336.409 64.355 343.005 L 66.910 349.600 70.055 349.600 C 71.785 349.600,73.200 349.548,73.200 349.486 C 73.200 349.304,68.465 337.548,63.821 326.200 C 61.480 320.480,58.642 313.505,57.514 310.700 L 55.462 305.600 52.213 305.600 L 48.964 305.600 45.293 315.300 M69.600 305.856 C 69.600 305.997,70.851 309.282,72.379 313.156 C 76.115 322.627,82.530 339.189,85.448 346.900 L 86.470 349.600 89.582 349.600 L 92.694 349.600 93.994 346.100 C 94.709 344.175,96.956 338.370,98.987 333.200 C 107.898 310.517,109.600 306.131,109.600 305.857 C 109.600 305.696,108.305 305.618,106.722 305.682 L 103.843 305.800 99.943 316.400 C 97.798 322.230,95.159 329.340,94.078 332.200 C 92.998 335.060,91.600 338.977,90.973 340.905 C 89.555 345.261,89.461 345.222,87.586 339.510 C 86.745 336.945,85.034 332.092,83.785 328.724 C 82.535 325.356,80.379 319.360,78.993 315.400 C 77.607 311.440,76.259 307.615,75.998 306.900 L 75.522 305.600 72.561 305.600 C 70.932 305.600,69.600 305.715,69.600 305.856 M120.811 310.885 C 119.646 313.808,117.294 319.890,115.585 324.400 C 113.876 328.910,111.285 335.750,109.827 339.600 C 108.368 343.450,106.912 347.275,106.591 348.100 L 106.006 349.600 108.955 349.600 L 111.904 349.600 113.753 344.446 C 114.770 341.611,115.876 338.638,116.210 337.839 L 116.817 336.386 126.306 336.493 L 135.796 336.600 138.195 343.100 L 140.593 349.600 143.697 349.600 C 145.403 349.600,146.800 349.459,146.800 349.286 C 146.800 349.114,144.981 344.479,142.757 338.986 C 140.533 333.494,137.039 324.860,134.993 319.800 C 132.947 314.740,130.824 309.520,130.274 308.200 L 129.276 305.800 126.102 305.685 L 122.929 305.570 120.811 310.885 M153.200 327.600 L 153.200 349.600 156.000 349.600 L 158.800 349.600 158.800 327.600 L 158.800 305.600 156.000 305.600 L 153.200 305.600 153.200 327.600 M169.200 327.600 L 169.200 349.600 183.000 349.600 L 196.800 349.600 196.800 347.200 L 196.800 344.800 185.800 344.800 L 174.800 344.800 174.800 325.200 L 174.800 305.600 172.000 305.600 L 169.200 305.600 169.200 327.600 M215.336 307.900 C 214.861 309.165,212.369 315.690,209.798 322.400 C 203.433 339.015,200.169 347.626,199.830 348.700 C 199.553 349.578,199.619 349.600,202.510 349.600 L 205.473 349.600 205.978 347.900 C 206.255 346.965,207.292 343.995,208.281 341.300 L 210.080 336.400 219.552 336.400 L 229.023 336.400 230.300 339.700 C 231.003 341.515,232.139 344.485,232.824 346.300 L 234.070 349.600 237.278 349.600 C 239.688 349.600,240.434 349.476,240.278 349.100 C 240.164 348.825,238.542 344.820,236.674 340.200 C 232.289 329.353,225.690 313.116,223.957 308.905 L 222.600 305.609 219.400 305.605 L 216.200 305.601 215.336 307.900 M245.200 327.627 L 245.200 349.653 257.100 349.520 C 268.198 349.395,269.143 349.328,271.124 348.523 C 280.287 344.795,281.483 331.533,273.029 327.397 C 270.358 326.090,270.395 326.317,272.605 324.797 C 278.124 321.000,277.873 312.226,272.125 307.999 C 269.317 305.934,267.004 305.600,255.516 305.600 L 245.200 305.600 245.200 327.627 M286.800 327.600 L 286.800 349.600 300.600 349.600 L 314.400 349.600 314.400 347.200 L 314.400 344.800 303.400 344.800 L 292.400 344.800 292.400 325.200 L 292.400 305.600 289.600 305.600 L 286.800 305.600 286.800 327.600 M322.000 327.600 L 322.000 349.600 338.400 349.600 L 354.800 349.600 354.800 347.200 L 354.800 344.800 341.200 344.800 L 327.600 344.800 327.600 337.200 L 327.600 329.600 339.800 329.600 L 352.000 329.600 352.000 327.006 L 352.000 324.412 339.900 324.306 L 327.800 324.200 327.800 317.400 L 327.800 310.600 340.700 310.494 L 353.600 310.389 353.600 307.994 L 353.600 305.600 337.800 305.600 L 322.000 305.600 322.000 327.600 M53.343 313.500 C 53.909 315.205,55.630 319.930,57.168 324.000 L 59.964 331.400 52.524 331.509 C 48.433 331.569,45.029 331.562,44.960 331.494 C 44.892 331.425,45.920 328.406,47.245 324.785 C 48.571 321.163,50.095 316.670,50.634 314.800 C 52.202 309.350,51.999 309.448,53.343 313.500 M127.770 315.200 C 128.596 317.510,130.246 322.099,131.436 325.397 C 132.626 328.695,133.600 331.440,133.600 331.497 C 133.600 331.554,130.193 331.600,126.028 331.600 L 118.456 331.600 119.589 328.500 C 120.213 326.795,121.617 322.970,122.710 320.000 C 123.803 317.030,124.922 313.640,125.197 312.468 C 125.806 309.862,125.895 309.957,127.770 315.200 M224.132 323.481 C 225.599 327.485,226.800 330.950,226.800 331.181 C 226.800 331.458,224.292 331.600,219.400 331.600 C 215.330 331.600,212.000 331.530,212.000 331.444 C 212.000 331.358,212.919 328.793,214.043 325.744 C 215.166 322.695,216.716 318.220,217.487 315.800 C 218.258 313.380,218.976 311.130,219.081 310.800 C 219.187 310.470,219.766 311.550,220.368 313.200 C 220.970 314.850,222.664 319.476,224.132 323.481 M265.612 310.840 C 272.154 312.243,273.314 320.219,267.406 323.178 C 265.558 324.103,265.069 324.156,258.227 324.178 L 251.000 324.200 250.889 317.816 C 250.829 314.305,250.868 311.200,250.977 310.916 C 251.231 310.253,262.600 310.194,265.612 310.840 M268.195 330.157 C 274.143 332.699,274.627 340.786,269.000 343.600 C 267.067 344.567,266.733 344.600,259.000 344.600 L 251.000 344.600 250.890 337.413 C 250.830 333.461,250.878 329.973,250.998 329.662 C 251.333 328.787,265.975 329.208,268.195 330.157 " stroke="none" fill="#a49d9d" fill-rule="evenodd"></path><path id="path1" d="M0.000 299.000 L 0.000 598.000 200.000 598.000 L 400.000 598.000 400.000 299.000 L 400.000 0.000 200.000 0.000 L 0.000 0.000 0.000 299.000 M223.379 155.811 C 243.836 161.140,244.985 193.425,224.968 200.424 C 207.874 206.401,192.916 191.111,197.000 171.835 C 199.546 159.816,211.313 152.668,223.379 155.811 M170.868 172.940 L 182.200 189.880 182.304 172.940 L 182.409 156.000 185.404 156.000 L 188.400 156.000 188.400 178.400 L 188.400 200.800 185.291 200.800 L 182.181 200.800 172.391 186.148 C 167.006 178.090,161.837 170.408,160.904 169.076 L 159.209 166.656 159.104 183.628 L 159.000 200.600 156.000 200.600 L 153.000 200.600 152.897 178.300 L 152.793 156.000 156.164 156.000 L 159.536 156.000 170.868 172.940 M212.930 161.376 C 206.091 163.514,202.995 168.897,203.022 178.600 C 203.051 189.377,207.995 195.499,217.000 195.911 C 228.712 196.447,235.750 184.523,231.616 171.146 C 229.101 163.009,221.095 158.823,212.930 161.376 M203.000 230.875 C 213.691 234.383,219.621 247.079,216.585 259.959 C 211.425 281.850,179.651 281.305,174.975 259.246 C 170.931 240.170,185.716 225.203,203.000 230.875 M288.260 230.854 C 305.728 236.203,307.934 265.652,291.471 273.713 C 277.874 280.371,263.138 273.167,260.173 258.413 C 256.445 239.861,271.009 225.571,288.260 230.854 M112.774 230.824 C 121.380 232.220,125.865 239.379,123.415 247.808 C 121.270 255.184,118.001 256.848,105.000 257.177 L 96.200 257.400 96.000 266.400 L 95.800 275.400 93.621 275.524 C 92.423 275.592,91.028 275.543,90.521 275.416 L 89.600 275.185 89.600 253.059 C 89.600 240.890,89.720 230.813,89.867 230.667 C 90.300 230.234,109.968 230.368,112.774 230.824 M137.908 239.700 L 138.015 248.800 149.208 248.800 L 160.400 248.800 160.400 239.583 L 160.400 230.366 163.500 230.483 L 166.600 230.600 166.600 253.000 L 166.600 275.400 163.600 275.400 L 160.600 275.400 160.493 264.900 L 160.387 254.400 149.193 254.400 L 138.000 254.400 138.000 264.792 L 138.000 275.185 137.079 275.416 C 136.572 275.543,135.177 275.592,133.979 275.524 L 131.800 275.400 131.697 252.883 L 131.593 230.366 134.697 230.483 L 137.800 230.600 137.908 239.700 M256.800 233.200 L 256.800 236.000 249.404 236.000 L 242.008 236.000 241.904 255.700 L 241.800 275.400 238.904 275.517 L 236.008 275.635 235.904 255.917 L 235.800 236.200 228.500 236.091 L 221.200 235.982 221.200 233.191 L 221.200 230.400 239.000 230.400 L 256.800 230.400 256.800 233.200 M190.911 236.008 C 178.537 240.058,177.088 263.065,188.832 269.016 C 201.801 275.588,213.954 263.227,210.196 247.287 C 208.021 238.063,199.628 233.154,190.911 236.008 M277.172 235.721 C 262.799 239.799,262.029 264.971,276.127 269.875 C 286.628 273.528,295.447 266.426,295.909 253.943 C 296.389 241.004,287.843 232.693,277.172 235.721 M96.000 243.779 L 96.000 251.659 104.100 251.529 C 111.854 251.406,112.273 251.358,113.920 250.415 C 119.017 247.497,118.717 239.712,113.400 236.892 C 112.455 236.391,110.478 236.218,104.100 236.078 L 96.000 235.899 96.000 243.779 M56.241 306.700 C 56.599 307.525,58.380 311.890,60.199 316.400 C 62.017 320.910,65.789 330.223,68.579 337.095 C 71.370 343.968,73.541 349.773,73.403 349.995 C 73.118 350.457,67.632 350.541,66.954 350.094 C 66.708 349.932,65.444 346.920,64.145 343.400 L 61.781 337.000 52.447 337.000 L 43.113 337.000 40.656 343.600 L 38.200 350.200 35.294 350.318 C 31.409 350.475,31.414 350.659,35.008 341.341 C 36.693 336.973,39.576 329.440,41.417 324.600 C 43.257 319.760,45.590 313.640,46.601 311.000 C 47.613 308.360,48.515 305.975,48.607 305.700 C 48.724 305.352,49.812 305.200,52.182 305.200 L 55.589 305.200 56.241 306.700 M78.067 311.800 C 87.233 337.643,89.406 343.552,89.649 343.294 C 89.801 343.132,90.108 342.370,90.330 341.600 C 90.552 340.830,92.922 334.350,95.596 327.200 C 98.270 320.050,101.203 312.175,102.114 309.700 L 103.770 305.200 106.885 305.200 C 108.598 305.200,110.000 305.343,110.000 305.518 C 110.000 305.899,106.596 314.693,94.254 346.200 C 92.525 350.612,92.768 350.400,89.441 350.400 L 86.530 350.400 83.490 342.700 C 81.818 338.465,79.642 332.840,78.654 330.200 C 77.666 327.560,76.372 324.230,75.779 322.800 C 74.628 320.026,69.200 305.615,69.200 305.335 C 69.200 305.243,70.684 305.220,72.499 305.284 L 75.797 305.400 78.067 311.800 M131.909 311.300 C 133.257 314.655,136.450 322.530,139.006 328.800 C 148.980 353.275,148.359 350.490,143.803 350.318 L 140.682 350.200 139.422 347.200 C 138.729 345.550,137.546 342.535,136.792 340.500 L 135.422 336.800 126.150 336.800 L 116.878 336.800 116.489 337.900 C 116.275 338.505,115.248 341.430,114.207 344.400 C 113.166 347.370,112.109 349.932,111.857 350.094 C 111.213 350.508,106.092 350.473,105.833 350.053 C 105.641 349.743,110.235 337.296,115.597 323.600 C 116.673 320.850,118.477 316.092,119.605 313.026 C 122.706 304.598,122.203 305.200,126.140 305.200 L 129.459 305.200 131.909 311.300 M159.103 327.700 L 159.000 350.200 156.000 350.200 L 153.000 350.200 152.896 328.200 C 152.839 316.100,152.878 305.975,152.984 305.700 C 153.113 305.361,154.147 305.200,156.191 305.200 L 159.207 305.200 159.103 327.700 M175.200 324.794 L 175.200 344.387 186.100 344.494 L 197.000 344.600 197.000 347.400 L 197.000 350.200 183.000 350.200 L 169.000 350.200 168.896 328.200 C 168.839 316.100,168.878 305.975,168.984 305.700 C 169.113 305.361,170.146 305.200,172.187 305.200 L 175.200 305.200 175.200 324.794 M227.079 315.600 C 229.357 321.210,232.188 328.230,233.369 331.200 C 234.550 334.170,236.713 339.466,238.175 342.969 C 241.351 350.579,241.373 350.400,237.241 350.400 L 234.056 350.400 231.687 344.300 C 230.384 340.945,229.206 337.882,229.069 337.493 C 228.838 336.839,228.109 336.793,219.513 336.893 L 210.206 337.000 208.320 342.400 C 205.347 350.914,205.728 350.400,202.394 350.400 C 198.694 350.400,198.672 350.286,201.133 344.093 C 202.246 341.292,204.416 335.670,205.956 331.600 C 208.420 325.085,215.059 307.587,215.737 305.820 C 215.946 305.274,216.552 305.187,219.462 305.284 L 222.936 305.400 227.079 315.600 M269.453 306.258 C 277.534 309.522,279.527 318.667,273.431 324.509 L 271.594 326.269 272.671 326.760 C 282.505 331.240,280.801 345.799,270.039 349.253 C 267.318 350.126,248.439 350.898,245.828 350.243 L 244.800 349.985 244.800 327.859 C 244.800 315.690,244.934 305.599,245.099 305.435 C 245.861 304.673,267.324 305.399,269.453 306.258 M292.800 324.794 L 292.800 344.387 303.700 344.494 L 314.600 344.600 314.600 347.400 L 314.600 350.200 300.600 350.200 L 286.600 350.200 286.496 328.200 C 286.439 316.100,286.478 305.975,286.584 305.700 C 286.713 305.361,287.746 305.200,289.787 305.200 L 292.800 305.200 292.800 324.794 M354.000 308.000 L 354.000 310.800 341.000 310.800 L 328.000 310.800 328.000 317.400 L 328.000 324.000 340.200 324.000 L 352.400 324.000 352.400 326.800 L 352.400 329.600 340.200 329.600 L 328.000 329.600 328.000 336.995 L 328.000 344.389 341.500 344.495 L 355.000 344.600 355.000 347.400 L 355.000 350.200 338.400 350.200 L 321.800 350.200 321.696 328.200 C 321.639 316.100,321.678 305.975,321.784 305.700 C 321.932 305.312,325.546 305.200,337.987 305.200 L 354.000 305.200 354.000 308.000 M124.920 314.178 C 124.440 316.036,122.896 320.625,121.489 324.377 C 120.082 328.128,119.022 331.288,119.132 331.399 C 119.483 331.750,133.200 331.615,133.200 331.261 C 133.200 331.074,131.863 327.386,130.230 323.065 C 128.596 318.744,126.971 314.217,126.619 313.005 C 125.822 310.265,125.956 310.173,124.920 314.178 M251.200 317.391 L 251.200 324.088 258.500 323.935 C 268.619 323.723,270.607 322.659,270.594 317.463 C 270.580 312.165,268.729 311.158,258.500 310.887 L 251.200 310.694 251.200 317.391 M51.427 313.641 C 51.036 315.048,49.584 319.260,48.202 323.000 C 46.820 326.740,45.567 330.205,45.418 330.700 L 45.146 331.600 52.173 331.600 C 56.933 331.600,59.200 331.461,59.200 331.169 C 59.200 330.839,55.251 319.588,52.416 311.841 C 52.211 311.280,51.953 311.750,51.427 313.641 M218.815 312.800 C 218.090 315.576,215.678 322.576,213.955 326.908 C 213.100 329.057,212.400 330.992,212.400 331.208 C 212.400 331.613,226.078 331.789,226.477 331.390 C 226.593 331.274,225.877 329.069,224.886 326.490 C 223.895 323.910,222.230 319.370,221.185 316.400 L 219.286 311.000 218.815 312.800 M251.200 337.000 L 251.200 344.400 258.500 344.398 C 268.984 344.395,272.747 342.552,272.789 337.400 C 272.837 331.487,269.339 329.600,258.327 329.600 L 251.200 329.600 251.200 337.000 " stroke="none" fill="#fcfcfc" fill-rule="evenodd"></path><path id="path2" d="M152.891 178.076 C 152.841 190.328,152.935 200.436,153.100 200.538 C 153.372 200.707,153.368 184.433,153.090 163.800 C 153.031 159.400,152.941 165.824,152.891 178.076 M216.291 160.689 C 217.001 160.777,218.261 160.779,219.091 160.692 C 219.921 160.605,219.340 160.533,217.800 160.531 C 216.260 160.529,215.581 160.600,216.291 160.689 M206.778 165.100 L 205.400 166.600 206.900 165.222 C 208.296 163.938,208.584 163.600,208.278 163.600 C 208.212 163.600,207.537 164.275,206.778 165.100 M158.889 183.500 C 158.938 192.905,159.027 197.900,159.087 194.600 C 159.367 179.315,159.373 166.400,159.100 166.400 C 158.935 166.400,158.840 174.095,158.889 183.500 M207.183 191.700 C 208.841 193.466,209.200 193.784,209.200 193.483 C 209.200 193.419,208.345 192.564,207.300 191.583 L 205.400 189.800 207.183 191.700 M227.578 192.300 L 226.200 193.800 227.700 192.422 C 229.096 191.138,229.384 190.800,229.078 190.800 C 229.012 190.800,228.337 191.475,227.578 192.300 M215.900 201.493 C 216.835 201.577,218.365 201.577,219.300 201.493 C 220.235 201.409,219.470 201.340,217.600 201.340 C 215.730 201.340,214.965 201.409,215.900 201.493 M195.105 229.883 C 195.602 229.979,196.322 229.975,196.705 229.875 C 197.087 229.775,196.680 229.696,195.800 229.701 C 194.920 229.705,194.607 229.787,195.105 229.883 M280.305 229.883 C 280.802 229.979,281.522 229.975,281.905 229.875 C 282.287 229.775,281.880 229.696,281.000 229.701 C 280.120 229.705,279.807 229.787,280.305 229.883 M89.784 230.900 C 89.678 231.175,89.639 241.300,89.696 253.400 L 89.800 275.400 90.000 252.900 C 90.110 240.525,90.149 230.400,90.087 230.400 C 90.026 230.400,89.889 230.625,89.784 230.900 M109.300 230.676 C 109.685 230.776,110.315 230.776,110.700 230.676 C 111.085 230.575,110.770 230.493,110.000 230.493 C 109.230 230.493,108.915 230.575,109.300 230.676 M137.600 239.738 L 137.800 249.000 149.000 249.009 L 160.200 249.019 149.100 248.903 L 138.000 248.788 138.000 239.817 C 138.000 234.884,137.865 230.763,137.700 230.661 C 137.535 230.559,137.490 234.643,137.600 239.738 M166.497 252.882 L 166.400 275.165 163.500 275.303 L 160.600 275.441 163.513 275.521 C 165.536 275.576,166.484 275.447,166.616 275.100 C 166.722 274.825,166.759 264.700,166.700 252.600 L 166.593 230.600 166.497 252.882 M294.800 234.525 C 294.800 234.594,295.385 235.179,296.100 235.825 L 297.400 237.000 296.225 235.700 C 295.130 234.488,294.800 234.216,294.800 234.525 M185.178 239.500 L 183.800 241.000 185.300 239.622 C 186.696 238.338,186.984 238.000,186.678 238.000 C 186.612 238.000,185.937 238.675,185.178 239.500 M204.800 238.125 C 204.800 238.194,205.385 238.779,206.100 239.425 L 207.400 240.600 206.225 239.300 C 205.130 238.088,204.800 237.816,204.800 238.125 M259.701 251.800 C 259.705 252.680,259.787 252.993,259.883 252.495 C 259.979 251.998,259.975 251.278,259.875 250.895 C 259.775 250.513,259.696 250.920,259.701 251.800 M296.131 253.000 C 296.133 254.540,296.205 255.121,296.292 254.291 C 296.379 253.461,296.377 252.201,296.289 251.491 C 296.200 250.781,296.129 251.460,296.131 253.000 M302.531 253.000 C 302.533 254.540,302.605 255.121,302.692 254.291 C 302.779 253.461,302.777 252.201,302.689 251.491 C 302.600 250.781,302.529 251.460,302.531 253.000 M99.500 251.898 C 101.315 251.972,104.285 251.972,106.100 251.898 C 107.915 251.823,106.430 251.763,102.800 251.763 C 99.170 251.763,97.685 251.823,99.500 251.898 M119.775 253.700 L 118.600 255.000 119.900 253.825 C 121.112 252.730,121.384 252.400,121.075 252.400 C 121.006 252.400,120.421 252.985,119.775 253.700 M259.693 255.200 C 259.693 255.970,259.775 256.285,259.876 255.900 C 259.976 255.515,259.976 254.885,259.876 254.500 C 259.775 254.115,259.693 254.430,259.693 255.200 M137.775 264.800 C 137.775 270.630,137.831 273.015,137.899 270.100 C 137.967 267.185,137.967 262.415,137.899 259.500 C 137.831 256.585,137.775 258.970,137.775 264.800 M205.775 266.900 L 204.600 268.200 205.900 267.025 C 207.112 265.930,207.384 265.600,207.075 265.600 C 207.006 265.600,206.421 266.185,205.775 266.900 M266.200 270.400 C 267.059 271.280,267.852 272.000,267.962 272.000 C 268.072 272.000,267.459 271.280,266.600 270.400 C 265.741 269.520,264.948 268.800,264.838 268.800 C 264.728 268.800,265.341 269.520,266.200 270.400 M210.575 270.500 L 209.400 271.800 210.700 270.625 C 211.415 269.979,212.000 269.394,212.000 269.325 C 212.000 269.016,211.670 269.288,210.575 270.500 M91.491 275.489 C 92.201 275.577,93.461 275.579,94.291 275.492 C 95.121 275.405,94.540 275.333,93.000 275.331 C 91.460 275.329,90.781 275.400,91.491 275.489 M133.091 275.489 C 133.801 275.577,135.061 275.579,135.891 275.492 C 136.721 275.405,136.140 275.333,134.600 275.331 C 133.060 275.329,132.381 275.400,133.091 275.489 M237.300 275.491 C 238.125 275.578,239.475 275.578,240.300 275.491 C 241.125 275.405,240.450 275.334,238.800 275.334 C 237.150 275.334,236.475 275.405,237.300 275.491 M158.897 327.500 L 158.800 350.000 156.003 350.000 L 153.207 350.000 153.098 327.800 L 152.990 305.600 152.995 327.900 L 153.000 350.200 155.906 350.318 C 158.003 350.403,158.867 350.291,159.010 349.918 C 159.119 349.633,159.159 339.410,159.100 327.200 L 158.993 305.000 158.897 327.500 M174.985 324.600 C 174.985 335.380,175.037 339.733,175.100 334.272 C 175.163 328.812,175.163 319.992,175.100 314.672 C 175.037 309.353,174.985 313.820,174.985 324.600 M244.984 305.700 C 244.878 305.975,244.839 316.100,244.896 328.200 L 245.000 350.200 245.200 327.700 C 245.310 315.325,245.349 305.200,245.287 305.200 C 245.226 305.200,245.089 305.425,244.984 305.700 M292.585 324.600 C 292.585 335.380,292.637 339.733,292.700 334.272 C 292.763 328.812,292.763 319.992,292.700 314.672 C 292.637 309.353,292.585 313.820,292.585 324.600 M168.995 327.900 L 169.000 350.200 182.775 350.305 C 190.351 350.363,196.687 350.273,196.855 350.105 C 197.023 349.937,190.871 349.850,183.184 349.910 L 169.207 350.020 169.098 327.810 L 168.990 305.600 168.995 327.900 M286.595 327.900 L 286.600 350.200 300.375 350.305 C 307.951 350.363,314.287 350.273,314.455 350.105 C 314.623 349.937,308.471 349.850,300.784 349.910 L 286.807 350.020 286.698 327.810 L 286.590 305.600 286.595 327.900 M321.795 327.900 L 321.800 350.200 338.400 350.200 L 355.000 350.200 355.000 347.400 L 355.000 344.600 341.400 344.592 L 327.800 344.584 341.300 344.697 L 354.800 344.811 354.800 347.405 L 354.800 350.000 338.403 350.000 L 322.007 350.000 321.898 327.800 L 321.790 305.600 321.795 327.900 M276.901 316.600 C 276.905 317.480,276.987 317.793,277.083 317.295 C 277.179 316.798,277.175 316.078,277.075 315.695 C 276.975 315.313,276.896 315.720,276.901 316.600 M278.924 337.000 C 278.926 338.320,279.001 338.812,279.090 338.093 C 279.179 337.374,279.177 336.294,279.086 335.693 C 278.995 335.092,278.922 335.680,278.924 337.000 M43.062 336.700 C 42.960 336.865,47.162 337.000,52.400 337.000 C 57.638 337.000,61.840 336.865,61.738 336.700 C 61.636 336.535,57.434 336.400,52.400 336.400 C 47.366 336.400,43.164 336.535,43.062 336.700 M121.300 336.699 C 123.885 336.768,128.115 336.768,130.700 336.699 C 133.285 336.629,131.170 336.572,126.000 336.572 C 120.830 336.572,118.715 336.629,121.300 336.699 M210.262 336.700 C 210.160 336.865,214.362 337.000,219.600 337.000 C 224.838 337.000,229.040 336.865,228.938 336.700 C 228.836 336.535,224.634 336.400,219.600 336.400 C 214.566 336.400,210.364 336.535,210.262 336.700 M180.500 344.699 C 183.525 344.767,188.475 344.767,191.500 344.699 C 194.525 344.631,192.050 344.575,186.000 344.575 C 179.950 344.575,177.475 344.631,180.500 344.699 M254.520 344.698 C 256.455 344.772,259.515 344.771,261.320 344.697 C 263.124 344.623,261.540 344.563,257.800 344.564 C 254.060 344.564,252.584 344.625,254.520 344.698 M298.100 344.699 C 301.125 344.767,306.075 344.767,309.100 344.699 C 312.125 344.631,309.650 344.575,303.600 344.575 C 297.550 344.575,295.075 344.631,298.100 344.699 M105.702 349.600 C 105.826 350.061,106.551 350.207,108.832 350.231 L 111.800 350.263 109.011 350.111 C 107.468 350.027,106.070 349.745,105.881 349.480 C 105.640 349.142,105.587 349.177,105.702 349.600 M144.000 350.000 L 140.600 350.251 143.876 350.325 C 145.714 350.367,147.261 350.224,147.400 350.000 C 147.536 349.780,147.592 349.634,147.524 349.675 C 147.456 349.716,145.870 349.862,144.000 350.000 M33.700 350.291 C 34.525 350.378,35.875 350.378,36.700 350.291 C 37.525 350.205,36.850 350.134,35.200 350.134 C 33.550 350.134,32.875 350.205,33.700 350.291 M68.711 350.293 C 69.651 350.378,71.091 350.377,71.911 350.291 C 72.730 350.205,71.960 350.136,70.200 350.137 C 68.440 350.139,67.770 350.209,68.711 350.293 M87.911 350.293 C 88.851 350.378,90.291 350.377,91.111 350.291 C 91.930 350.205,91.160 350.136,89.400 350.137 C 87.640 350.139,86.970 350.209,87.911 350.293 M200.900 350.291 C 201.725 350.378,203.075 350.378,203.900 350.291 C 204.725 350.205,204.050 350.134,202.400 350.134 C 200.750 350.134,200.075 350.205,200.900 350.291 M235.500 350.293 C 236.435 350.377,237.965 350.377,238.900 350.293 C 239.835 350.209,239.070 350.140,237.200 350.140 C 235.330 350.140,234.565 350.209,235.500 350.293 M250.100 350.299 C 252.685 350.368,256.915 350.368,259.500 350.299 C 262.085 350.229,259.970 350.172,254.800 350.172 C 249.630 350.172,247.515 350.229,250.100 350.299 " stroke="none" fill="#d4d4d4" fill-rule="evenodd"></path><path id="path3" d="M216.707 155.490 C 217.426 155.579,218.506 155.577,219.107 155.486 C 219.708 155.395,219.120 155.322,217.800 155.324 C 216.480 155.326,215.988 155.401,216.707 155.490 M154.711 156.293 C 155.651 156.378,157.091 156.377,157.911 156.291 C 158.730 156.205,157.960 156.136,156.200 156.137 C 154.440 156.139,153.770 156.209,154.711 156.293 M184.100 156.291 C 184.925 156.378,186.275 156.378,187.100 156.291 C 187.925 156.205,187.250 156.134,185.600 156.134 C 183.950 156.134,183.275 156.205,184.100 156.291 M202.524 178.600 C 202.526 179.920,202.601 180.412,202.690 179.693 C 202.779 178.974,202.777 177.894,202.686 177.293 C 202.595 176.692,202.522 177.280,202.524 178.600 M232.914 178.200 C 232.917 179.300,232.995 179.703,233.087 179.095 C 233.179 178.486,233.177 177.586,233.082 177.095 C 232.987 176.603,232.911 177.100,232.914 178.200 M238.909 178.400 C 238.909 179.390,238.987 179.795,239.082 179.300 C 239.178 178.805,239.178 177.995,239.082 177.500 C 238.987 177.005,238.909 177.410,238.909 178.400 M207.200 192.200 C 207.946 192.970,208.647 193.600,208.757 193.600 C 208.867 193.600,208.346 192.970,207.600 192.200 C 206.854 191.430,206.153 190.800,206.043 190.800 C 205.933 190.800,206.454 191.430,207.200 192.200 M192.500 230.276 C 192.885 230.376,193.515 230.376,193.900 230.276 C 194.285 230.175,193.970 230.093,193.200 230.093 C 192.430 230.093,192.115 230.175,192.500 230.276 M197.700 230.276 C 198.085 230.376,198.715 230.376,199.100 230.276 C 199.485 230.175,199.170 230.093,198.400 230.093 C 197.630 230.093,197.315 230.175,197.700 230.276 M282.900 230.276 C 283.285 230.376,283.915 230.376,284.300 230.276 C 284.685 230.175,284.370 230.093,283.600 230.093 C 282.830 230.093,282.515 230.175,282.900 230.276 M131.787 253.000 C 131.787 265.320,131.838 270.418,131.900 264.328 C 131.962 258.239,131.962 248.159,131.900 241.928 C 131.838 235.698,131.787 240.680,131.787 253.000 M137.371 239.600 C 137.371 244.550,137.428 246.575,137.499 244.100 C 137.569 241.625,137.569 237.575,137.499 235.100 C 137.428 232.625,137.371 234.650,137.371 239.600 M221.331 233.400 C 221.333 234.940,221.405 235.521,221.492 234.691 C 221.579 233.861,221.577 232.601,221.489 231.891 C 221.400 231.181,221.329 231.860,221.331 233.400 M180.575 236.100 L 179.400 237.400 180.700 236.225 C 181.912 235.130,182.184 234.800,181.875 234.800 C 181.806 234.800,181.221 235.385,180.575 236.100 M280.500 235.076 C 280.885 235.176,281.515 235.176,281.900 235.076 C 282.285 234.975,281.970 234.893,281.200 234.893 C 280.430 234.893,280.115 234.975,280.500 235.076 M95.769 244.000 C 95.769 248.510,95.827 250.355,95.898 248.100 C 95.970 245.845,95.970 242.155,95.898 239.900 C 95.827 237.645,95.769 239.490,95.769 244.000 M302.150 253.000 C 302.151 255.420,302.216 256.358,302.296 255.085 C 302.376 253.812,302.375 251.832,302.294 250.685 C 302.214 249.538,302.149 250.580,302.150 253.000 M216.942 253.000 C 216.941 254.980,217.008 255.840,217.092 254.912 C 217.176 253.984,217.177 252.364,217.095 251.312 C 217.012 250.260,216.943 251.020,216.942 253.000 M174.514 253.400 C 174.517 254.500,174.595 254.903,174.687 254.295 C 174.779 253.686,174.777 252.786,174.682 252.295 C 174.587 251.803,174.511 252.300,174.514 253.400 M180.501 253.400 C 180.505 254.280,180.587 254.593,180.683 254.095 C 180.779 253.598,180.775 252.878,180.675 252.495 C 180.575 252.113,180.496 252.520,180.501 253.400 M141.400 254.282 C 151.381 254.565,160.709 254.574,160.539 254.300 C 160.436 254.135,155.188 254.038,148.876 254.084 C 142.564 254.131,139.200 254.220,141.400 254.282 M137.374 265.000 C 137.375 270.720,137.431 273.004,137.499 270.076 C 137.568 267.148,137.567 262.468,137.499 259.676 C 137.430 256.884,137.374 259.280,137.374 265.000 M100.121 257.098 C 102.277 257.171,105.697 257.170,107.721 257.098 C 109.744 257.025,107.980 256.966,103.800 256.967 C 99.620 256.967,97.964 257.026,100.121 257.098 M95.772 266.200 C 95.772 271.260,95.829 273.275,95.899 270.677 C 95.969 268.080,95.968 263.940,95.898 261.477 C 95.828 259.015,95.771 261.140,95.772 266.200 M270.400 266.600 C 271.146 267.370,271.847 268.000,271.957 268.000 C 272.067 268.000,271.546 267.370,270.800 266.600 C 270.054 265.830,269.353 265.200,269.243 265.200 C 269.133 265.200,269.654 265.830,270.400 266.600 M194.707 271.090 C 195.426 271.179,196.506 271.177,197.107 271.086 C 197.708 270.995,197.120 270.922,195.800 270.924 C 194.480 270.926,193.988 271.001,194.707 271.090 M279.900 271.089 C 280.615 271.178,281.785 271.178,282.500 271.089 C 283.215 271.001,282.630 270.928,281.200 270.928 C 279.770 270.928,279.185 271.001,279.900 271.089 M353.674 307.894 L 353.600 310.389 340.700 310.494 L 327.800 310.600 327.785 317.300 L 327.770 324.001 327.895 317.400 L 328.019 310.800 340.822 310.800 C 355.195 310.800,354.139 311.062,353.897 307.552 L 353.748 305.400 353.674 307.894 M250.977 310.916 C 250.868 311.200,250.829 314.305,250.889 317.816 L 251.000 324.200 256.900 324.217 L 262.801 324.233 257.000 324.106 L 251.200 323.979 251.200 317.399 L 251.200 310.819 257.900 310.699 L 264.600 310.579 257.887 310.490 C 252.709 310.420,251.130 310.518,250.977 310.916 M270.914 317.400 C 270.917 318.500,270.995 318.903,271.087 318.295 C 271.179 317.686,271.177 316.786,271.082 316.295 C 270.987 315.803,270.911 316.300,270.914 317.400 M352.131 327.000 C 352.133 328.540,352.205 329.121,352.292 328.291 C 352.379 327.461,352.377 326.201,352.289 325.491 C 352.200 324.781,352.129 325.460,352.131 327.000 M250.978 329.713 C 250.869 329.996,250.835 333.461,250.900 337.413 L 251.020 344.600 251.110 337.110 L 251.200 329.620 257.700 329.499 L 264.200 329.379 257.687 329.289 C 252.690 329.221,251.129 329.319,250.978 329.713 M327.767 337.200 C 327.767 341.490,327.826 343.245,327.898 341.100 C 327.970 338.955,327.970 335.445,327.898 333.300 C 327.826 331.155,327.767 332.910,327.767 337.200 M146.800 349.183 C 146.800 349.394,145.405 349.628,143.700 349.703 L 140.600 349.839 143.900 349.920 C 146.602 349.985,147.200 349.891,147.200 349.400 C 147.200 349.070,147.110 348.800,147.000 348.800 C 146.890 348.800,146.800 348.972,146.800 349.183 M31.999 349.700 C 32.000 349.865,33.485 349.973,35.300 349.940 C 38.707 349.878,38.313 349.710,34.299 349.513 C 33.034 349.451,31.999 349.535,31.999 349.700 M199.200 349.700 C 199.200 349.865,200.595 349.973,202.300 349.940 C 205.455 349.879,205.082 349.720,201.300 349.514 C 200.145 349.451,199.200 349.535,199.200 349.700 M68.300 349.893 C 69.235 349.977,70.765 349.977,71.700 349.893 C 72.635 349.809,71.870 349.740,70.000 349.740 C 68.130 349.740,67.365 349.809,68.300 349.893 M87.900 349.893 C 88.835 349.977,90.365 349.977,91.300 349.893 C 92.235 349.809,91.470 349.740,89.600 349.740 C 87.730 349.740,86.965 349.809,87.900 349.893 M107.511 349.893 C 108.451 349.978,109.891 349.977,110.711 349.891 C 111.530 349.805,110.760 349.736,109.000 349.737 C 107.240 349.739,106.570 349.809,107.511 349.893 M154.500 349.891 C 155.325 349.978,156.675 349.978,157.500 349.891 C 158.325 349.805,157.650 349.734,156.000 349.734 C 154.350 349.734,153.675 349.805,154.500 349.891 M175.874 349.899 C 179.655 349.965,185.955 349.965,189.874 349.899 C 193.793 349.834,190.700 349.780,183.000 349.780 C 175.300 349.780,172.093 349.834,175.874 349.899 M235.500 349.893 C 236.435 349.977,237.965 349.977,238.900 349.893 C 239.835 349.809,239.070 349.740,237.200 349.740 C 235.330 349.740,234.565 349.809,235.500 349.893 M250.076 349.899 C 252.868 349.967,257.548 349.968,260.476 349.899 C 263.404 349.831,261.120 349.775,255.400 349.774 C 249.680 349.774,247.284 349.830,250.076 349.899 M293.474 349.899 C 297.255 349.965,303.555 349.965,307.474 349.899 C 311.393 349.834,308.300 349.780,300.600 349.780 C 292.900 349.780,289.693 349.834,293.474 349.899 M330.100 349.900 C 334.665 349.964,342.135 349.964,346.700 349.900 C 351.265 349.835,347.530 349.783,338.400 349.783 C 329.270 349.783,325.535 349.835,330.100 349.900 " stroke="none" fill="#ccc4c4" fill-rule="evenodd"></path><path id="path4" d="M182.400 173.280 C 182.290 182.674,182.337 190.223,182.504 190.056 C 182.672 189.888,182.762 182.202,182.704 172.976 L 182.600 156.200 182.400 173.280 M216.905 196.287 C 217.514 196.379,218.414 196.377,218.905 196.282 C 219.397 196.187,218.900 196.111,217.800 196.114 C 216.700 196.117,216.297 196.195,216.905 196.287 M154.691 200.689 C 155.401 200.777,156.661 200.779,157.491 200.692 C 158.321 200.605,157.740 200.533,156.200 200.531 C 154.660 200.529,153.981 200.600,154.691 200.689 M183.911 200.693 C 184.851 200.778,186.291 200.777,187.111 200.691 C 187.930 200.605,187.160 200.536,185.400 200.537 C 183.640 200.539,182.970 200.609,183.911 200.693 M94.900 230.699 C 97.485 230.768,101.715 230.768,104.300 230.699 C 106.885 230.629,104.770 230.572,99.600 230.572 C 94.430 230.572,92.315 230.629,94.900 230.699 M133.091 230.689 C 133.801 230.777,135.061 230.779,135.891 230.692 C 136.721 230.605,136.140 230.533,134.600 230.531 C 133.060 230.529,132.381 230.600,133.091 230.689 M162.100 230.691 C 162.925 230.778,164.275 230.778,165.100 230.691 C 165.925 230.605,165.250 230.534,163.600 230.534 C 161.950 230.534,161.275 230.605,162.100 230.691 M230.100 230.700 C 234.885 230.763,242.715 230.763,247.500 230.700 C 252.285 230.636,248.370 230.584,238.800 230.584 C 229.230 230.584,225.315 230.636,230.100 230.700 M256.531 233.400 C 256.533 234.940,256.605 235.521,256.692 234.691 C 256.779 233.861,256.777 232.601,256.689 231.891 C 256.600 231.181,256.529 231.860,256.531 233.400 M160.571 240.000 C 160.571 244.950,160.628 246.975,160.699 244.500 C 160.769 242.025,160.769 237.975,160.699 235.500 C 160.628 233.025,160.571 235.050,160.571 240.000 M210.914 253.000 C 210.917 254.100,210.995 254.503,211.087 253.895 C 211.179 253.286,211.177 252.386,211.082 251.895 C 210.987 251.403,210.911 251.900,210.914 253.000 M160.574 265.000 C 160.575 270.720,160.631 273.004,160.699 270.076 C 160.768 267.148,160.767 262.468,160.699 259.676 C 160.630 256.884,160.574 259.280,160.574 265.000 M50.711 305.493 C 51.651 305.578,53.091 305.577,53.911 305.491 C 54.730 305.405,53.960 305.336,52.200 305.337 C 50.440 305.339,49.770 305.409,50.711 305.493 M69.461 305.500 C 69.359 305.665,70.203 305.749,71.338 305.686 C 75.016 305.482,75.463 305.321,72.524 305.260 C 70.942 305.227,69.564 305.335,69.461 305.500 M105.700 305.491 C 106.525 305.578,107.875 305.578,108.700 305.491 C 109.525 305.405,108.850 305.334,107.200 305.334 C 105.550 305.334,104.875 305.405,105.700 305.491 M122.661 305.500 C 122.558 305.665,123.582 305.750,124.937 305.688 C 129.078 305.500,129.569 305.323,126.124 305.260 C 124.322 305.227,122.763 305.335,122.661 305.500 M154.500 305.491 C 155.325 305.578,156.675 305.578,157.500 305.491 C 158.325 305.405,157.650 305.334,156.000 305.334 C 154.350 305.334,153.675 305.405,154.500 305.491 M170.500 305.491 C 171.325 305.578,172.675 305.578,173.500 305.491 C 174.325 305.405,173.650 305.334,172.000 305.334 C 170.350 305.334,169.675 305.405,170.500 305.491 M217.911 305.493 C 218.851 305.578,220.291 305.577,221.111 305.491 C 221.930 305.405,221.160 305.336,219.400 305.337 C 217.640 305.339,216.970 305.409,217.911 305.493 M250.100 305.499 C 252.685 305.568,256.915 305.568,259.500 305.499 C 262.085 305.429,259.970 305.372,254.800 305.372 C 249.630 305.372,247.515 305.429,250.100 305.499 M288.100 305.491 C 288.925 305.578,290.275 305.578,291.100 305.491 C 291.925 305.405,291.250 305.334,289.600 305.334 C 287.950 305.334,287.275 305.405,288.100 305.491 M329.673 305.499 C 334.004 305.564,341.204 305.564,345.673 305.500 C 350.143 305.435,346.600 305.382,337.800 305.382 C 329.000 305.382,325.343 305.435,329.673 305.499 M333.900 324.299 C 337.255 324.366,342.745 324.366,346.100 324.299 C 349.455 324.232,346.710 324.178,340.000 324.178 C 333.290 324.178,330.545 324.232,333.900 324.299 M196.928 347.200 C 196.928 348.630,197.001 349.215,197.089 348.500 C 197.178 347.785,197.178 346.615,197.089 345.900 C 197.001 345.185,196.928 345.770,196.928 347.200 M314.528 347.200 C 314.528 348.630,314.601 349.215,314.689 348.500 C 314.778 347.785,314.778 346.615,314.689 345.900 C 314.601 345.185,314.528 345.770,314.528 347.200 " stroke="none" fill="#cccccc" fill-rule="evenodd"></path></g></svg>